<svg xmlns="http://www.w3.org/2000/svg" xmlns:xlink="http://www.w3.org/1999/xlink" width="224" height="28" viewBox="0 0 224 28">
  <defs>
    <style>
      .cls-1, .cls-4 {
        fill: #fff;
      }

      .cls-2 {
        clip-path: url(#clip-path);
      }

      .cls-3 {
        clip-path: url(#clip-path-2);
      }

      .cls-4 {
        fill-rule: evenodd;
      }
    </style>
    <clipPath id="clip-path">
      <rect id="사각형_121368" data-name="사각형 121368" class="cls-1" width="224" height="28" transform="translate(-10149 -1464)"/>
    </clipPath>
    <clipPath id="clip-path-2">
      <rect id="사각형_121367" data-name="사각형 121367" class="cls-1" width="217.18" height="22.164"/>
    </clipPath>
  </defs>
  <g id="마스크_그룹_139586" data-name="마스크 그룹 139586" class="cls-2" transform="translate(10149 1464)">
    <g id="그룹_147061" data-name="그룹 147061" transform="translate(-10146 -1461)">
      <g id="그룹_147058" data-name="그룹 147058" class="cls-3">
        <path id="패스_157591" data-name="패스 157591" class="cls-4" d="M14.452,13.127H3.457L3.4,18.964H17.286l.113-5.838ZM3.457,9.669H17.4V3.775H3.457Zm0-9.351H14.452a6.434,6.434,0,0,1,6.4,6.4,6.332,6.332,0,0,1-2.04,4.647,6.459,6.459,0,0,1,2.04,4.7,6.386,6.386,0,0,1-6.4,6.348H0V.318Z" transform="translate(0 -0.288)"/>
        <path id="패스_157592" data-name="패스 157592" class="cls-4" d="M270.648,13.127H259.6v9.295h-3.4V.318h14.452a6.434,6.434,0,0,1,6.4,6.4,6.332,6.332,0,0,1-2.04,4.647,6.459,6.459,0,0,1,2.04,4.7v6.348H273.6V13.127ZM259.653,9.669H273.6V3.775H259.653Z" transform="translate(-231.826 -0.288)"/>
        <path id="패스_157593" data-name="패스 157593" class="cls-4" d="M782.771,13.127v9.295h-3.457V.318h3.457Z" transform="translate(-705.182 -0.288)"/>
        <path id="패스_157594" data-name="패스 157594" class="cls-4" d="M864.764,2.014H863.8v20.12h-3.457V4.9A4.907,4.907,0,0,1,866.917.314a4.8,4.8,0,0,1,2.267,2.437l4.987,8.671,5.1,8.785h.907V.03h3.457V17.26a4.907,4.907,0,0,1-6.574,4.591c-.907-.34-1.474-1.133-2.21-2.38l-5.044-8.728Z" transform="translate(-778.504 0)"/>
        <path id="패스_157595" data-name="패스 157595" class="cls-4" d="M532.864,3.1h-1.984L525.5,22.421h-3.57L526.857,4.8c.85-3,2.947-4.477,5.044-4.477s4.251,1.53,5.044,4.647c1.643,6.064,3.287,11.392,4.931,17.456h-3.571c-1.814-6.688-3.627-12.582-5.441-19.326" transform="translate(-472.278 -0.288)"/>
        <path id="패스_157596" data-name="패스 157596" class="cls-4" d="M1146.57,13.127v9.295h-3.4V3.718h-9.351V.318h10.995a1.766,1.766,0,0,1,1.757,1.757V13.127ZM1148.95.318h6.971v3.4h-6.971Z" transform="translate(-1025.965 -0.288)"/>
        <path id="패스_157597" data-name="패스 157597" class="cls-4" d="M1414,13.127h-11.052v9.295h-3.4V.318H1414a6.386,6.386,0,0,1,6.348,6.4,6.283,6.283,0,0,1-1.984,4.647,6.41,6.41,0,0,1,1.984,4.7v6.348h-3.457V13.127ZM1403,9.669h13.885V3.775H1403Z" transform="translate(-1266.417 -0.288)"/>
        <path id="패스_157598" data-name="패스 157598" class="cls-4" d="M1663.339,22.421h10.938V18.964h-13.886V3.775h13.886V.318h-10.938a6.434,6.434,0,0,0-6.4,6.4v9.351A6.386,6.386,0,0,0,1663.339,22.421Z" transform="translate(-1499.321 -0.288)"/>
        <path id="패스_157599" data-name="패스 157599" class="cls-4" d="M1888.2,13.127h-10.938l-.057,5.838H1888.2v3.457h-14.4V.318h14.4V3.775h-10.938V9.669H1888.2Z" transform="translate(-1695.564 -0.288)"/>
        <path id="패스_157600" data-name="패스 157600" class="cls-4" d="M2078.861,13.127h-10.995v9.295h-3.4V.318h14.4a6.4,6.4,0,0,1,6.4,6.4,6.331,6.331,0,0,1-2.04,4.647,6.458,6.458,0,0,1,2.04,4.7v6.348h-3.457V13.127Zm-10.938-3.457h13.885V3.775h-13.885Z" transform="translate(-1868.086 -0.288)"/>
      </g>
    </g>
  </g>
</svg>
